<svg xmlns="http://www.w3.org/2000/svg" width="97" height="98" viewBox="0 0 97 98">
  <defs>
    <style>
      .cls-1 {
        fill-rule: evenodd;
      }
    </style>
  </defs>
  <path class="cls-1" d="M11201.4,5007.75l-0.3-.51v-0.15l0.1-.19v-0.02l0.1-.3v-0.25l-0.1-.02h0v-0.01l-0.1-.08v-0.19l-0.1-.09v-0.11l0.1-.1-0.1-.01-0.4-.09-0.1-.06v-0.02l-0.1-.01v0.03l-0.3.07h-0.1v-0.05l-0.1-.11v-0.06l-0.1-.04,0.1-.12-0.1-.01-0.1-.04v-0.05l0.1-.1-0.2-.18,0.2-.25,0.1-.08,0.2-.14,0.2-.2v-0.04l0.1-.12v-0.19l-0.6-.01-0.1-.1-0.1-.21,0.1-.07-0.5-.65v-0.14l-0.2-.16-0.2-.01-0.3.1-0.1-.01v-0.05l-0.1-.07,0.1-.14v-0.13l-0.1-.02-0.1-.06v-0.08l-0.1.02v0.01l-0.7-.02h0v-0.02l0.1,0.2v0.04l-0.2-.2-0.1-.03-0.7.02-0.1-.06-0.2-.18v-0.01l-0.1-.02v0.05l-0.1.03v0.14l-0.1.01v0.01h-0.1v-0.01l-0.1-.05-0.1-.03v-0.01h0v-0.19l0.1-.12v-0.16l-0.1-.04h0l-0.2-.06v-0.05l-0.2-.1-0.1-.18v-0.34l0.1-.13,0.5-.56V5000l0.1-.03,0.1-.03v-0.03l0.1-.17,0.2-.32,0.1-.12v-0.04l-0.1-.05h-0.1l-0.2.05,0.4-.54,0.1-.33-0.1-.16v-0.32l0.1-.04,0.1,0.09,0.1-.09v-0.1l0.1-.18v-0.05l-0.1-.05v-0.09l0.1,0.01,0.1-.01,0.1-.02v-0.03l0.1-.03-0.2-.2v-0.22l0.1-.06v-0.07l-0.1-.18h-0.1l-0.2.03-0.1.03v-0.01l-0.1-.08-0.2-.25-0.1-.09-0.1-.01v-0.01l-0.2.03-0.2.05h-0.1l-0.1-.03v-0.05l-0.1-.09-0.1-.05v-0.04l-0.5-.14-0.2-.16-0.1-.31v-0.27l-0.1-.05-0.1-.16-0.1-.06-0.1-.06-0.2-.02-0.1.06v0.02l-0.4.25-0.2.06-1-.04-0.3.07h0l-0.2-.03v-0.48l-0.1-.2-0.1-.02h-0.1l-0.3.03-0.2-.07h0v-0.09l-0.1-.3v-0.12l-0.3-.32-0.1-.13v-0.3l0.1-.22,0.1-.24-0.1-.2-0.1-.12-0.3-.17v-0.03l-0.1.03-0.1.07v0.21l-0.1.09v0.12l-0.1.09v0.09l-0.2.18-0.1.13-0.1.1-0.2.05-0.2-.09-0.1-.07-0.1-.02-0.1-.02-0.6-.03-0.2-.07,0.1-.16,0.1-.01,0.4,0.17-0.1-.1v-0.43l0.1-.13-0.1-.2v-0.12l-0.2-.08v-0.02l-0.1-.03v-0.02l-0.2-.01-0.2.14-0.7.82-0.1.06-0.1.04h-0.2l-0.2-.06-0.2.03-0.1.01h0l-0.1-.01-0.1-.07-0.1-.05,0.1-.06v-0.58l-0.1-.02h-0.1l-0.2.04-0.2.06-0.2.11-0.5.26,0.1,0.12v0.09l-0.1.11v0.14l0.1,0.09v0.03l0.2,0.24v0.36l-0.2.09h0l-0.4-.02v-0.02l-0.1-.04-0.2-.11-0.1-.06-0.3-.01,0.2,0.16v0.11l0.1,0.14-0.1.29,0.1,0.12v0.06l0.3,0.12-0.1.26-0.1.08V4995l-0.1.03,0.1-.12v-0.27l-0.1-.13-0.2-.14-0.1-.17-0.1-.25v-0.13l-0.2-.15h0v0.06l-0.1.32v0.13l-0.3.46-0.5.34-1,.53-0.4.27v0.05l-0.1.02-0.1.04-1,.01h0l-0.1-.04-0.2-.15v-0.48l-0.2-.1-1-.35-0.2-.03-0.2.01h0l-0.4.07-0.1.02-0.1.03h-0.1l-0.1.1v0.16l0.1,0.17-0.1.07v0.07l-0.4.05-0.1-.01-0.2-.02-0.1-.05-0.1-.05v-0.01l-0.2-.22-0.1-.12v-1.06l-0.1-.34-1.9.62-1.7,1.13-1.8,1.05-1.2.88-0.3.11-0.2.12,0.2,0.27v0.52l0.1,0.11v0.27l0.3,0.33,0.2,0.21v0.35l-0.2.12v0.08l-0.1.12,0.1,0.3,0.1,0.29v0.1l-0.1.15v0.1l0.1,0.04v0.03l0.1,0.03v0.17l0.1,0.08h0v0.02l0.2,0.03h0l0.2-.02h0.1l0.1,0.06v0.07l0.1,0.1v0.09l0.3,0.27v0.03l0.1,0.1,0.1,0.27v0.06l0.1,0.03,0.1,0.09v0.05l0.1,0.04,0.6,0.27v0.01h0l0.1,0.01h0v0.02l0.1,0.01,0.1-.08,0.1-.26,0.1-.18,0.1-.09,0.1-.09,0.1-.05,0.1-.06,0.4-.11,0.1-.02v-0.04h0v-0.01l0.2-.07,0.5-.13v0.01l0.2,0.05,0.1,0.13,0.2,0.23v0.03l-0.1.03,0.1,0.05v0.17l0.2,0.26v0.07l0.1,0.01,0.2,0.04v0.12l0.1,0.19v0.23l-0.1.12,0.1,0.39,0.2,0.75v0.59l0.1,0.02,0.1,0.15,0.1,0.08,0.4,0.2,0.1,0.04,0.2-.01v-0.01l0.1-.03,0.3-.11,0.1-.07v-0.02l0.1-.05v-0.04l0.1-.05h0l0.1-.01,0.1,0.03,0.1,0.02v0.19l-0.1.14,0.1,0.07h0.6l0.2,0.05,0.2,0.09,0.1,0.19,0.2,0.26v1.14l0.1,0.55,0.3,0.28,0.1-.09V5008l0.1-.07,0.1-.26,0.1-.08,0.1-.03v-0.02l0.4-.03,0.3,0.04,0.2,0.1,0.1,0.04,0.1,0.05,0.1,0.06v0.01h0.2l0.2-.08,0.4-.15,0.1-.01v-0.01l0.2,0.08h0l0.3,0.31v0.04l0.2,0.08,0.1,0.15,0.1,0.12,0.2,0.38v0.03l0.1,0.04,0.1-.03v-0.2l0.1-.04,0.1,0.03v0.02l0.1,0.05,0.1,0.08,0.1,0.1-0.1.06v0.17l-0.3.16v0.14l-0.1.09v0.25l-0.1.2-0.1.33v0.25l0.1,0.03v0.02l0.2-.07,0.1-.02,0.1,0.05,0.1,0.58v0.05l0.1,0.08v0.19l-0.1.05-0.1.05-0.1.04-0.1.1-0.1.05-0.1.09v0.09l-0.1.08v0.15l0.1,0.01v0.4h-0.1l0.5,0.26v0.01l0.1,0.03,0.4-.06,0.3-.03,0.2,0.06,1.1,0.29,0.1,0.02,0.2-.04,0.9-.45,0.3-.15,0.4-.06v-0.02l0.1-.04v-0.14l0.1-.22v-0.79l0.1-.11,0.9-.93,0.2-.1v0.19l0.1,0.04,0.3-.05,0.1,0.11v0.23l-0.1.28v0.23l-0.1-.1v0.01l-0.1.25-0.1.1v0.36l-0.1.24-0.2.59-0.1.22,0.1,0.19,0.2,0.07,0.2,0.09,0.2,0.25v0.33l-0.1.06v0.22l-0.1.1v0.15l0.1,0.14v0.57l0.1,0.1,0.1,0.01,0.1,0.02v-0.01l0.2-.02,0.2-.07,0.2-.05,0.1-.01,0.1-.01v0.02l0.1,0.02,0.3,0.31,0.2,0.1,0.2,0.07,0.1,0.02,0.1,0.09,0.1,0.23,0.3,0.3v0.09l0.1,0.03,0.1,0.12,0.2,0.05,0.3-.06,0.1-.04h0.2l0.2,0.18,0.2,0.2v0.25l-0.1.03h0v0.33l0.1,0.05,0.1,0.02v-0.01h0l0.1-.06v-0.08l0.1-.03h0l0.1,0.03v0.03l0.3,0.1,0.1,0.14,0.4,0.74,0.1,0.13v0.13l-0.1.13v0.14l0.1,0.1,0.2,0.05v-0.03l0.2-.1,0.1-.08,0.1-.08,0.1-.02,0.1-.06,0.2,0.13,0.1,0.03,0.1-.02h0l0.1-.04v-0.1l0.1-.14,0.2-.1,0.2,0.04,0.2,0.09,0.2,0.03h0l0.1-.04,0.1-.16,0.1-.05,0.1,0.01,0.2,0.12h0l0.1,0.02,0.2-.1,0.2-.2v-0.1l0.1-.1-0.1-.04-0.1-.05,0.1-.09,0.1-.13v-0.12l0.1-.18,0.1-.08v-0.08l0.1-.12v-0.07l-0.1-.1v-0.05l-0.2-.02v-0.05l-0.1-.04v-0.11l0.1-.04v-0.43h-0.1v0.02l-0.1-.01v-0.01l-0.1-.08-0.1-.03v-0.25l-0.1-.06-0.1-.3-0.1-.1v-0.08l-0.1-.04v-0.02l-0.1-.01h0l-0.1-.04-0.1-.16v-0.07l-0.1-.08v-0.16l0.1-.13,0.1-.06-0.1-.08V5014l0.3,0.02-0.1-.12-0.2-.12v-0.02l-0.1-.05v-0.13l0.1-.18,0.2-.33,0.1-.06v-0.18l0.1-.07v-0.04l0.2-.03v-0.08l0.1-.18v-0.07l-0.1-.07,0.1-.19v-0.06l0.2-.08v-0.07l0.1-.1v-0.36l0.1-.12,0.1-.04v-0.34l0.1-.09v-0.05l0.1-.08,0.3-.16,0.2-.12v-0.22l0.1-.15v-0.13l0.1-.01,0.1-.01,0.2-.11v0.2l0.1,0.09,0.1,0.03v0.01l0.1,0.01,0.2-.03v-0.01l0.1-.03v-0.06h0.1l0.1,0.09v0.33l0.1,0.04,0.1,0.05v-0.08l0.1-.07v-0.02l-0.1-.09v-0.3l0.1-.03v-0.01l0.2-.01v-0.04l0.1-.13v-0.27l-0.1-.04-0.1-.12,0.1-.12,0.1-.04,0.1-.1V5009l0.1-.09,0.2-.09,0.1-.02,0.2-.05,0.2-.14-0.1-.12,0.1-.13v-0.17l0.1-.07,0.1-.04v-0.03l0.1,0.01v0.01l0.1,0.02,0.1,0.02,0.2-.04,0.1-.05,0.1-.07Zm-53.6-21.54-6.4-2.1,5.4,4.9-0.3,1.04-7.3.69,6.4,2.09-0.4,1.13-8.2-2.7,0.5-1.54,7.6-.7-5.7-5.12,0.5-1.51,8.2,2.69Zm3.7-10.67-2.3,3.1,1.4,2.16-0.7,1.04-5-7.86,0.8-1.11,9,2.28-0.7,1.05Zm-2.9,2.11,1.7-2.41-4-1.06Zm8.8-5.12-5.4-6.78,2.4-1.88a4.349,4.349,0,0,1,5.4,6.8Zm1.7-2.67a2.978,2.978,0,0,0,.3-4.37c-1.4-1.71-3.1-1.76-4.4-.77l-1.4,1.12,4.1,5.11Zm7.6-3.76-3.5-7.93,4.9-2.09,0.4,1.02-3.7,1.61,1,2.44,3.4-1.46,0.5,1.03-3.4,1.46,1,2.43,3.8-1.62,0.4,1.02Zm24.7-12.73,1.2,0.04-2.7,8.56-1.3-.04-2-7.09-2.5,6.93-1.2-.04-2.2-8.73,1.3,0.04,1.6,6.83,2.5-6.69,1.2,0.05,2,6.91Zm4.6,9.98,2.5-8.28,1.2,0.35-2.5,8.28Zm12-3.15-3.5,6.64-1.1-.56,3.6-6.65-2.6-1.36,0.5-.98,6.2,3.29-0.5.98Zm6.1,14.05,2.7-2.8-3.2-3.02-2.7,2.8-0.9-.82,6-6.3,0.8,0.82-2.5,2.69,3.2,3.02,2.6-2.69,0.8,0.82-5.9,6.3Zm6.8,9.54,7.9-3.48,0.5,1.09-6.9,3.04,1.7,3.74-1.1.45Zm12.6,10.55a4.56,4.56,0,1,1-5.2-3.58A4.4,4.4,0,0,1,11233.5,4994.34Zm-7.9,1.24a3.458,3.458,0,1,0,2.9-3.62A3.2,3.2,0,0,0,11225.6,4995.58Zm7.6,14.8-0.1,1.25-8.2-4.31,0.1-1.18,9-2.23-0.2,1.26-7.3,1.77Zm-9.8,3.86,8.1,3.11-1.9,4.91-1-.4,1.4-3.79-2.4-.96-1.4,3.44-1-.4,1.3-3.44-2.5-.95-1.4,3.79-1.1-.4Zm-7.5,13.53,6.6,5.63-0.8.92-6.5-5.62Zm-8.7,7.95,7.9,2.85-4.2-5.65,1-.71,5.1,6.93-1.2.95-7.5-2.73,4,5.32-1,.71-5.1-6.93Zm-11.4,14.05c-1.7.37-2.8-.37-3.1-1.7a1.876,1.876,0,0,1,.8-2.11,2.084,2.084,0,0,1-2-1.68,2.484,2.484,0,0,1,2.1-2.9l3-.68,1.9,8.43Zm-1.8-7.4a1.47,1.47,0,0,0-1.3,1.71,1.43,1.43,0,0,0,1.9,1.02l1.7-.38-0.7-2.72Zm1,3.68a1.469,1.469,0,0,0-1.2,1.69,1.414,1.414,0,0,0,1.9.96l1.4-.32-0.6-2.66Zm-8.2-3.7-0.1,8.65-5.3-.09v-1.11l4.1,0.07v-2.66l-3.7-.06,0.1-1.12,3.6,0.06,0.1-2.65-4.1-.07v-1.11Zm-9.6-.72-2.2,8.38-1.1-.3,1.8-7.29-3.9-1.01,0.2-1.08Zm-14.2-5.68-0.5,1.13a3.071,3.071,0,0,1,3.1.1,4.513,4.513,0,0,1-4.4,7.86,3.924,3.924,0,0,1-2.1-4.13l1.2,0.11a2.747,2.747,0,0,0,1.4,3.06,3.162,3.162,0,0,0,4.4-1.51,3.127,3.127,0,0,0-1-4.46,2.556,2.556,0,0,0-3.5.69l2.7,1.45-0.5.94-3.7-1.99,2.1-3.71Zm-4.3-3.32-5.7,6.48-0.9-.81,5.7-6.48Zm-6.6-2.33-4.6,3.39-0.7-.95,4.5-3.37a1.907,1.907,0,1,0-2.2-3.09l-4.6,3.38-0.7-.96,4.6-3.4a2.85,2.85,0,0,1,4.3.63A2.906,2.906,0,0,1,11152.1,5030.3Zm-6.4-18.36-6.3,2.2,7.3,0.58,0.4,1.04-5.4,4.97,6.3-2.2,0.4,1.12-8.2,2.82-0.5-1.53,5.7-5.18-7.7-.61-0.5-1.51,8.2-2.82Z" transform="translate(-11137 -4953)"/>
</svg>
