<?xml version="1.0" encoding="UTF-8"?>
<!DOCTYPE svg PUBLIC "-//W3C//DTD SVG 1.1//EN" "http://www.w3.org/Graphics/SVG/1.1/DTD/svg11.dtd">
<!-- Creator: CorelDRAW 2017 -->
<svg xmlns="http://www.w3.org/2000/svg" xml:space="preserve" width="0.35in" height="0.35in" version="1.1" style="shape-rendering:geometricPrecision; text-rendering:geometricPrecision; image-rendering:optimizeQuality; fill-rule:evenodd; clip-rule:evenodd"
viewBox="0 0 22 22"
 xmlns:xlink="http://www.w3.org/1999/xlink">
 <defs>
  <style type="text/css">
   <![CDATA[
    .fil0 {fill:none}
    .fil1 {fill:#296AB0}
   ]]>
  </style>
 </defs>
 <g id="Layer_x0020_1">
  <metadata id="CorelCorpID_0Corel-Layer"/>
  <g id="_2552719192304">
   <rect class="fil0" width="22" height="22"/>
   <path class="fil1" d="M10 8c-2,0 -3,1 -3,3 0,2 2,3 3,3 1,0 2,0 3,-1l0 1c0,0 0,1 1,1l1 0c0,0 1,0 1,-1l0 -6c0,-1 0,-2 -1,-3 -1,-1 -3,-1 -5,-1 -1,0 -2,1 -2,2 0,0 0,0 0,0l2 0c1,0 1,-1 2,-1 1,0 2,0 2,1l-3 1zm5 7l-8 0c0,0 0,0 0,1l0 1c0,0 0,1 0,1l8 0c0,0 0,0 0,-1l0 -1c0,0 0,-1 0,-1zm-2 -6c0,1 -1,2 -3,2 -1,0 -1,0 -1,-1 0,-1 1,-1 1,-1l3 0 0 0z"/>
  </g>
 </g>
</svg>
